<svg width="64" height="65" viewBox="0 0 64 65" fill="none" xmlns="http://www.w3.org/2000/svg">
<path d="M6.85742 43.9277H57.1432V53.0706H6.85742V43.9277Z" fill="white"/>
<path d="M13.7148 32.5H50.2863V41.6429H13.7148V32.5Z" fill="white"/>
<path d="M20.5723 23.3574H43.4295V30.2146H20.5723V23.3574Z" fill="white"/>
<path d="M0 55.3574H64.0001V64.5003H0V55.3574Z" fill="white"/>
<path d="M23.5804 0.618175C22.6507 0.305674 21.6195 0.627104 21.0291 1.41505L0.45759 28.8437C0.160714 29.2388 0 29.7187 0 30.2142V53.0714H4.57144V30.9754L6.85716 27.9278V41.6428H11.4286V21.8328L13.7143 18.7853V30.2142H18.2858V12.6903L20.5715 9.64275V21.0713H25.1429V2.78559C25.1429 1.80121 24.5134 0.928444 23.5804 0.618175Z" fill="white"/>
<path d="M40.4199 0.618175C41.3496 0.305674 42.3809 0.627104 42.9713 1.41505L63.5427 28.8437C63.8396 29.2388 64.0003 29.7187 64.0003 30.2142V53.0714H59.4289V30.9754L57.1432 27.9278V41.6428H52.5717V21.8328L50.286 18.7853V30.2142H45.7146V12.6903L43.4289 9.64275V21.0713H38.8574V2.78559C38.8574 1.80121 39.4869 0.928444 40.4199 0.618175Z" fill="white"/>
</svg>
