<svg width="66" height="66" viewBox="0 0 66 66" fill="none" xmlns="http://www.w3.org/2000/svg">
<path d="M17.2023 9.10016C15.8532 9.09949 14.5228 9.4162 13.3188 10.0247C12.1147 10.6332 11.0707 11.5165 10.2711 12.6031C9.47147 13.6896 8.9387 14.9491 8.71583 16.2797C8.49295 17.6102 8.58623 18.9746 8.98811 20.2624C9.38998 21.5502 10.0892 22.7255 11.0292 23.6932C11.9693 24.6608 13.1238 25.3938 14.3995 25.8327C15.6752 26.2717 17.0362 26.4044 18.3727 26.2202C19.7091 26.0359 20.9835 25.5398 22.0927 24.772C22.2041 24.6947 22.2992 24.5963 22.3725 24.4823C22.4458 24.3684 22.496 24.2411 22.5201 24.1077C22.5443 23.9743 22.5419 23.8375 22.5132 23.705C22.4844 23.5726 22.4299 23.4471 22.3526 23.3357C22.2754 23.2244 22.177 23.1293 22.063 23.056C21.949 22.9826 21.8217 22.9325 21.6883 22.9083C21.5549 22.8842 21.4181 22.8866 21.2857 22.9153C21.1532 22.9441 21.0277 22.9986 20.9164 23.0759C19.586 23.9948 17.9622 24.3882 16.3588 24.18C14.7553 23.9718 13.2859 23.1768 12.2343 21.9485C11.1827 20.7203 10.6236 19.1459 10.6649 17.5295C10.7062 15.9131 11.345 14.3694 12.458 13.1964C13.5709 12.0235 15.079 11.3046 16.6911 11.1785C18.3031 11.0525 19.9046 11.5283 21.1863 12.514C22.468 13.4998 23.339 14.9255 23.631 16.5158C23.923 18.1062 23.6154 19.7483 22.7674 21.125C22.6235 21.3579 22.578 21.6384 22.6409 21.9047C22.7038 22.1711 22.8699 22.4016 23.1028 22.5455C23.3356 22.6894 23.6161 22.735 23.8825 22.6721C24.1489 22.6092 24.3794 22.443 24.5233 22.2102C25.3265 20.9074 25.7675 19.4138 25.8005 17.8837C25.8336 16.3535 25.4576 14.8423 24.7114 13.506C23.9652 12.1697 22.8758 11.0568 21.5557 10.2823C20.2357 9.50781 18.7328 9.0997 17.2023 9.10016ZM17.2023 13.2283C16.3178 13.2283 15.4531 13.4906 14.7177 13.982C13.9822 14.4734 13.409 15.1719 13.0705 15.989C12.732 16.8062 12.6435 17.7054 12.816 18.5729C12.9886 19.4405 13.4145 20.2373 14.04 20.8628C14.6654 21.4882 15.4623 21.9141 16.3298 22.0867C17.1973 22.2593 18.0965 22.1707 18.9137 21.8322C19.7309 21.4937 20.4293 20.9205 20.9207 20.1851C21.4121 19.4496 21.6744 18.585 21.6744 17.7005C21.6731 16.5148 21.2015 15.3781 20.3631 14.5397C19.5247 13.7013 18.3879 13.2297 17.2023 13.2283ZM17.2023 20.1086C16.726 20.1086 16.2604 19.9673 15.8644 19.7027C15.4684 19.4381 15.1598 19.062 14.9775 18.622C14.7952 18.182 14.7475 17.6978 14.8405 17.2307C14.9334 16.7636 15.1627 16.3345 15.4995 15.9977C15.8363 15.6609 16.2654 15.4316 16.7325 15.3387C17.1996 15.2457 17.6838 15.2934 18.1238 15.4757C18.5638 15.658 18.9399 15.9666 19.2045 16.3626C19.4691 16.7586 19.6104 17.2242 19.6104 17.7005C19.6096 18.3389 19.3557 18.951 18.9042 19.4024C18.4528 19.8539 17.8407 20.1078 17.2023 20.1086Z" fill="white"/>
<path d="M61.0278 17.5621C60.7541 17.5621 60.4916 17.4534 60.2981 17.2599C60.1045 17.0663 59.9958 16.8038 59.9958 16.5301V11.3471C59.9953 10.8911 59.8139 10.4538 59.4914 10.1314C59.169 9.80892 58.7317 9.62753 58.2757 9.62702H31.3152C31.2225 9.84159 31.0995 10.0417 30.9499 10.2212L29.426 12.0496C29.5784 12.3777 29.7172 12.7114 29.8424 13.0506L32.2111 13.266C32.8106 13.3178 33.3686 13.5933 33.7743 14.0375C34.1801 14.4818 34.4039 15.0625 34.4013 15.6642V19.7355C34.4039 20.3371 34.1801 20.9178 33.7744 21.3621C33.3687 21.8063 32.8107 22.0818 32.2113 22.1337L29.8424 22.349C29.7175 22.6875 29.5787 23.0212 29.426 23.3501L30.9499 25.1787C31.3371 25.6392 31.5369 26.2285 31.5096 26.8295C31.4824 27.4305 31.23 27.9993 30.8027 28.4229L27.9239 31.3017C27.5004 31.7291 26.9315 31.9815 26.3304 32.0088C25.7293 32.0361 25.14 31.8362 24.6795 31.449L22.851 29.925C22.5226 30.0775 22.189 30.2163 21.8499 30.3415L21.6345 32.7102C21.5827 33.3097 21.3073 33.8677 20.863 34.2735C20.4187 34.6792 19.8381 34.903 19.2364 34.9004H15.1649C14.5633 34.903 13.9826 34.6793 13.5383 34.2736C13.094 33.8678 12.8187 33.3098 12.7669 32.7104L12.5514 30.3415C12.2131 30.2166 11.8794 30.0777 11.5503 29.925L9.72181 31.449C9.26126 31.8362 8.67192 32.036 8.07085 32.0087C7.46977 31.9814 6.90095 31.729 6.47736 31.3017L3.59853 28.4229C3.17123 27.9993 2.9189 27.4305 2.89164 26.8295C2.86439 26.2284 3.06422 25.6391 3.45143 25.1786L4.97527 23.3501C4.82298 23.0218 4.68419 22.6881 4.55888 22.349L2.19001 22.1337C1.59059 22.0818 1.03261 21.8063 0.626889 21.3621C0.221172 20.9178 -0.00259756 20.3371 2.33693e-05 19.7355V15.6642C-0.00263219 15.0625 0.221122 14.4818 0.626842 14.0375C1.03256 13.5932 1.59056 13.3177 2.19001 13.2658L4.55888 13.0505C4.68382 12.712 4.82262 12.3783 4.97527 12.0494L3.45143 10.2209C3.06424 9.76038 2.86443 9.17105 2.89168 8.56999C2.91893 7.96892 3.17125 7.40009 3.59853 6.97647L6.47736 4.09778C6.90096 3.67048 7.46978 3.41814 8.07085 3.39086C8.67191 3.36358 9.26125 3.56337 9.72181 3.95054L11.5503 5.47452C11.8786 5.32205 12.2123 5.18321 12.5514 5.05799L12.7667 2.68925C12.8185 2.08979 13.0939 1.53174 13.5382 1.12598C13.9825 0.720222 14.5632 0.496456 15.1649 0.499138H19.2364C19.838 0.496422 20.4187 0.720165 20.863 1.1259C21.3073 1.53164 21.5827 2.08968 21.6344 2.68912L21.8499 5.05799C22.1883 5.18293 22.522 5.32178 22.851 5.47452L24.6796 3.95054C25.1401 3.56329 25.7294 3.36345 26.3305 3.39073C26.9316 3.418 27.5004 3.67041 27.9239 4.09778L30.8027 6.97647C30.9751 7.14916 31.1205 7.34682 31.234 7.56281H58.2757C59.279 7.56398 60.2408 7.96303 60.9502 8.67245C61.6596 9.38186 62.0587 10.3437 62.0599 11.3469V16.5301C62.0599 16.8038 61.9511 17.0663 61.7576 17.2599C61.564 17.4534 61.3015 17.5621 61.0278 17.5621ZM29.3432 8.43619L26.4642 5.55722C26.4037 5.49623 26.3225 5.46023 26.2366 5.45636C26.1508 5.45248 26.0667 5.48102 26.0009 5.5363L23.6557 7.49029C23.4984 7.62136 23.3057 7.70267 23.102 7.7239C22.8984 7.74512 22.693 7.70528 22.5121 7.60946C21.8934 7.28178 21.2456 7.01225 20.5771 6.80433C20.3819 6.74379 20.2091 6.62668 20.0806 6.46785C19.952 6.30901 19.8735 6.11559 19.855 5.9121L19.5787 2.87557C19.5713 2.79004 19.5319 2.71045 19.4685 2.65259C19.4051 2.59472 19.3222 2.56282 19.2364 2.56321H15.1649C15.079 2.56282 14.996 2.5948 14.9326 2.65277C14.8691 2.71075 14.8298 2.79049 14.8224 2.87612L14.5462 5.91251C14.5277 6.116 14.4492 6.30942 14.3207 6.46826C14.1922 6.6271 14.0194 6.74421 13.8242 6.80474C13.1557 7.01266 12.5079 7.28219 11.8892 7.60987C11.7083 7.70569 11.5029 7.74553 11.2993 7.72431C11.0956 7.70309 10.9029 7.62177 10.7456 7.4907L8.40053 5.53672C8.33477 5.48136 8.25059 5.45278 8.16472 5.45666C8.07885 5.46053 7.99758 5.49658 7.93708 5.55763L5.05824 8.43605C4.99715 8.49652 4.96106 8.57777 4.95713 8.66364C4.9532 8.74951 4.98173 8.83371 5.03705 8.8995L6.99104 11.2447C7.12214 11.402 7.20347 11.5948 7.22469 11.7985C7.24591 12.0021 7.20606 12.2075 7.11021 12.3885C6.78245 13.0071 6.51291 13.6548 6.30508 14.3233C6.24455 14.5185 6.12746 14.6912 5.96865 14.8198C5.80984 14.9483 5.61645 15.0268 5.41299 15.0454L2.37632 15.3215C2.2908 15.3291 2.21123 15.3685 2.1534 15.432C2.09557 15.4954 2.0637 15.5783 2.0641 15.6642V19.7355C2.06371 19.8214 2.09569 19.9044 2.15366 19.9678C2.21164 20.0313 2.29137 20.0706 2.37701 20.078L5.41354 20.3542C5.617 20.3727 5.81039 20.4512 5.9692 20.5797C6.12801 20.7083 6.2451 20.881 6.30563 21.0762C6.51347 21.7448 6.783 22.3926 7.11076 23.0113C7.20658 23.1922 7.24642 23.3976 7.2252 23.6013C7.20398 23.8049 7.12266 23.9976 6.99159 24.1549L5.0376 26.5001C4.98229 26.5659 4.95375 26.6501 4.95768 26.736C4.96161 26.8219 4.9977 26.9031 5.05879 26.9636L7.93708 29.8423C7.99759 29.9033 8.07883 29.9393 8.16465 29.9431C8.25048 29.947 8.33463 29.9185 8.40039 29.8632L10.7456 27.9092C10.9029 27.7781 11.0956 27.6968 11.2993 27.6755C11.5029 27.6543 11.7083 27.6941 11.8892 27.7899C12.5079 28.1176 13.1557 28.3871 13.8242 28.5949C14.0194 28.6554 14.1922 28.7725 14.3207 28.9314C14.4492 29.0902 14.5277 29.2836 14.5462 29.4871L14.8226 32.5238C14.83 32.6093 14.8693 32.689 14.9327 32.7469C14.9962 32.8048 15.079 32.8367 15.1649 32.8363H19.2364C19.3223 32.8367 19.4053 32.8047 19.4687 32.7467C19.5322 32.6888 19.5715 32.609 19.5789 32.5234L19.855 29.4869C19.8735 29.2834 19.952 29.0899 20.0806 28.9311C20.2091 28.7723 20.3819 28.6552 20.5771 28.5946C21.2456 28.3868 21.8934 28.1174 22.5121 27.7896C22.693 27.6938 22.8984 27.654 23.102 27.6753C23.3057 27.6965 23.4984 27.7778 23.6557 27.9089L26.0009 29.8629C26.0666 29.9183 26.1508 29.9468 26.2366 29.943C26.3225 29.9391 26.4037 29.9031 26.4642 29.842L29.343 26.9632C29.4041 26.9027 29.4402 26.8215 29.4442 26.7356C29.4481 26.6497 29.4195 26.5655 29.3642 26.4997L27.4102 24.1545C27.2792 23.9972 27.1979 23.8045 27.1766 23.6008C27.1554 23.3972 27.1952 23.1918 27.2911 23.0109C27.6188 22.3922 27.8884 21.7444 28.0962 21.0759C28.1567 20.8808 28.2738 20.708 28.4326 20.5794C28.5914 20.4509 28.7848 20.3724 28.9883 20.3539L32.0248 20.0777C32.1103 20.0702 32.1899 20.0309 32.2477 19.9675C32.3056 19.9041 32.3375 19.8213 32.3372 19.7355V15.6642C32.3376 15.5782 32.3056 15.4952 32.2476 15.4317C32.1897 15.3683 32.1099 15.3289 32.0243 15.3215L28.9877 15.0454C28.7843 15.0268 28.5909 14.9483 28.4321 14.8198C28.2733 14.6912 28.1562 14.5185 28.0956 14.3233C27.8878 13.6548 27.6183 13.0071 27.2905 12.3885C27.1947 12.2075 27.1548 12.0021 27.176 11.7985C27.1973 11.5948 27.2786 11.402 27.4097 11.2447L29.3637 8.89964C29.4191 8.8339 29.4477 8.74973 29.4439 8.66384C29.4401 8.57796 29.4042 8.49665 29.3432 8.43605V8.43619Z" fill="white"/>
<path d="M38.0349 42.7623V40.9046H34.9388C34.4828 40.9041 34.0456 40.7227 33.7231 40.4002C33.4006 40.0778 33.2193 39.6406 33.2188 39.1845V33.4051C33.2193 32.9491 33.4007 32.5119 33.7231 32.1895C34.0456 31.867 34.4828 31.6856 34.9388 31.6851H52.8275C53.2835 31.6856 53.7207 31.867 54.0432 32.1894C54.3656 32.5119 54.547 32.9491 54.5475 33.4051V50.0553C54.547 50.5114 54.3656 50.9486 54.0432 51.271C53.7207 51.5935 53.2835 51.7749 52.8275 51.7754H49.3873C48.9313 51.7749 48.4941 51.5935 48.1716 51.271C47.8492 50.9486 47.6678 50.5114 47.6673 50.0553V48.1977H44.5712C44.1151 48.1972 43.6779 48.0158 43.3555 47.6933C43.033 47.3708 42.8516 46.9336 42.8511 46.4776V44.4823H39.755C39.299 44.4818 38.8617 44.3004 38.5393 43.978C38.2168 43.6555 38.0354 43.2183 38.0349 42.7623ZM38.0349 33.7491H35.2828V38.8405H38.0349V33.7491ZM49.7313 47.1656V49.7113H52.4834V33.7491H49.7313V47.1656ZM44.9152 43.4503V46.1336H47.6673V33.7491H44.9152V43.4503ZM40.099 39.8726V42.4183H42.8511V33.7491H40.099V39.8726Z" fill="white"/>
<path d="M54.118 57.2387C54.688 57.2387 55.15 57.7007 55.15 58.2707C55.15 58.8407 54.688 59.3027 54.118 59.3027C53.548 59.3027 53.0859 58.8407 53.0859 58.2707C53.0859 57.7007 53.548 57.2387 54.118 57.2387Z" fill="white"/>
<path d="M43.243 57.2387C43.813 57.2387 44.275 57.7007 44.275 58.2707C44.275 58.8407 43.813 59.3027 43.243 59.3027C42.673 59.3027 42.2109 58.8407 42.2109 58.2707C42.2109 57.7007 42.673 57.2387 43.243 57.2387Z" fill="white"/>
<path d="M32.3758 57.2387C32.9458 57.2387 33.4078 57.7007 33.4078 58.2707C33.4078 58.8407 32.9458 59.3027 32.3758 59.3027C31.8058 59.3027 31.3438 58.8407 31.3438 58.2707C31.3438 57.7007 31.8058 57.2387 32.3758 57.2387Z" fill="white"/>
<path d="M21.5047 57.2387C22.0747 57.2387 22.5367 57.7007 22.5367 58.2707C22.5367 58.8407 22.0747 59.3027 21.5047 59.3027C20.9347 59.3027 20.4727 58.8407 20.4727 58.2707C20.4727 57.7007 20.9347 57.2387 21.5047 57.2387Z" fill="white"/>
<path d="M13.4219 42.6535C13.4219 42.3798 13.5306 42.1173 13.7242 41.9237C13.9177 41.7302 14.1802 41.6215 14.4539 41.6215H29.5905C29.8642 41.6215 30.1267 41.7302 30.3202 41.9237C30.5138 42.1173 30.6225 42.3798 30.6225 42.6535C30.6225 42.9272 30.5138 43.1897 30.3202 43.3833C30.1267 43.5768 29.8642 43.6855 29.5905 43.6855H14.4539C14.1802 43.6855 13.9177 43.5768 13.7242 43.3833C13.5306 43.1897 13.4219 42.9272 13.4219 42.6535Z" fill="white"/>
<path d="M20.0555 39.0059C19.7818 39.0059 19.5193 38.8971 19.3257 38.7036C19.1322 38.51 19.0234 38.2475 19.0234 37.9738C19.0234 37.7001 19.1322 37.4376 19.3257 37.2441C19.5193 37.0505 19.7818 36.9418 20.0555 36.9418H25.4405C25.7142 36.9418 25.9767 37.0505 26.1703 37.2441C26.3638 37.4376 26.4725 37.7001 26.4725 37.9738C26.4725 38.2475 26.3638 38.51 26.1703 38.7036C25.9767 38.8971 25.7142 39.0059 25.4405 39.0059H20.0555Z" fill="white"/>
<path d="M14.4539 36.9418H16.862C17.1357 36.9418 17.3982 37.0505 17.5918 37.2441C17.7853 37.4376 17.894 37.7001 17.894 37.9738C17.894 38.2475 17.7853 38.51 17.5918 38.7036C17.3982 38.8971 17.1357 39.0059 16.862 39.0059H14.4539C14.1802 39.0059 13.9177 38.8971 13.7242 38.7036C13.5306 38.51 13.4219 38.2475 13.4219 37.9738C13.4219 37.7001 13.5306 37.4376 13.7242 37.2441C13.9177 37.0505 14.1802 36.9418 14.4539 36.9418Z" fill="white"/>
<path d="M17.2734 47.3312C17.2734 47.0575 17.3822 46.795 17.5757 46.6015C17.7693 46.4079 18.0318 46.2992 18.3055 46.2992H29.5891C29.8628 46.2992 30.1253 46.4079 30.3188 46.6015C30.5124 46.795 30.6211 47.0575 30.6211 47.3312C30.6211 47.605 30.5124 47.8675 30.3188 48.061C30.1253 48.2545 29.8628 48.3633 29.5891 48.3633H18.3055C18.0318 48.3633 17.7693 48.2545 17.5757 48.061C17.3822 47.8675 17.2734 47.605 17.2734 47.3312Z" fill="white"/>
<path d="M15.4891 46.2992C16.059 46.2992 16.5211 46.7613 16.5211 47.3312C16.5211 47.9012 16.059 48.3633 15.4891 48.3633C14.9191 48.3633 14.457 47.9012 14.457 47.3312C14.457 46.7613 14.9191 46.2992 15.4891 46.2992Z" fill="white"/>
<path d="M28.5555 36.9418C29.1255 36.9418 29.5875 37.4038 29.5875 37.9738C29.5875 38.5438 29.1255 39.0059 28.5555 39.0059C27.9855 39.0059 27.5234 38.5438 27.5234 37.9738C27.5234 37.4038 27.9855 36.9418 28.5555 36.9418Z" fill="white"/>
<path d="M53.1694 20.6594C53.1694 20.9331 53.0606 21.1956 52.8671 21.3891C52.6735 21.5827 52.411 21.6914 52.1373 21.6914H37.0008C36.7271 21.6914 36.4646 21.5827 36.271 21.3891C36.0775 21.1956 35.9688 20.9331 35.9688 20.6594C35.9688 20.3857 36.0775 20.1232 36.271 19.9296C36.4646 19.7361 36.7271 19.6273 37.0008 19.6273H52.1373C52.411 19.6273 52.6735 19.7361 52.8671 19.9296C53.0606 20.1232 53.1694 20.3857 53.1694 20.6594Z" fill="white"/>
<path d="M42.6102 17.0137C42.3364 17.0137 42.0739 16.9049 41.8804 16.7114C41.6869 16.5179 41.5781 16.2553 41.5781 15.9816C41.5781 15.7079 41.6869 15.4454 41.8804 15.2519C42.0739 15.0583 42.3364 14.9496 42.6102 14.9496H47.9951C48.2688 14.9496 48.5313 15.0583 48.7248 15.2519C48.9184 15.4454 49.0271 15.7079 49.0271 15.9816C49.0271 16.2553 48.9184 16.5179 48.7248 16.7114C48.5313 16.9049 48.2688 17.0137 47.9951 17.0137H42.6102Z" fill="white"/>
<path d="M37.0008 17.0137C36.7271 17.0137 36.4646 16.9049 36.271 16.7114C36.0775 16.5179 35.9688 16.2553 35.9688 15.9816C35.9688 15.7079 36.0775 15.4454 36.271 15.2519C36.4646 15.0583 36.7271 14.9496 37.0008 14.9496H39.4089C39.6826 14.9496 39.9451 15.0583 40.1386 15.2519C40.3322 15.4454 40.4409 15.7079 40.4409 15.9816C40.4409 16.2553 40.3322 16.5179 40.1386 16.7114C39.9451 16.9049 39.6826 17.0137 39.4089 17.0137H37.0008Z" fill="white"/>
<path d="M52.1399 26.3691H40.8563C40.5825 26.3691 40.32 26.2604 40.1265 26.0669C39.9329 25.8733 39.8242 25.6108 39.8242 25.3371C39.8242 25.0634 39.9329 24.8009 40.1265 24.6073C40.32 24.4138 40.5825 24.3051 40.8563 24.3051H52.1399C52.4136 24.3051 52.6761 24.4138 52.8696 24.6073C53.0632 24.8009 53.1719 25.0634 53.1719 25.3371C53.1719 25.6108 53.0632 25.8733 52.8696 26.0669C52.6761 26.2604 52.4136 26.3691 52.1399 26.3691Z" fill="white"/>
<path d="M38.0359 24.3051C38.2401 24.3051 38.4396 24.3656 38.6093 24.479C38.779 24.5924 38.9113 24.7536 38.9894 24.9422C39.0675 25.1307 39.088 25.3382 39.0482 25.5384C39.0083 25.7386 38.91 25.9225 38.7657 26.0669C38.6214 26.2112 38.4375 26.3095 38.2373 26.3493C38.0371 26.3891 37.8296 26.3687 37.641 26.2906C37.4524 26.2125 37.2912 26.0802 37.1778 25.9105C37.0644 25.7408 37.0039 25.5412 37.0039 25.3371C37.0039 25.0634 37.1126 24.8009 37.3062 24.6073C37.4997 24.4138 37.7622 24.3051 38.0359 24.3051Z" fill="white"/>
<path d="M50.0742 15.9816C50.0742 15.7775 50.1347 15.578 50.2481 15.4083C50.3615 15.2385 50.5227 15.1063 50.7113 15.0282C50.8999 14.95 51.1074 14.9296 51.3076 14.9694C51.5078 15.0092 51.6917 15.1075 51.836 15.2519C51.9803 15.3962 52.0786 15.5801 52.1185 15.7803C52.1583 15.9805 52.1378 16.188 52.0597 16.3766C51.9816 16.5652 51.8493 16.7263 51.6796 16.8397C51.5099 16.9531 51.3104 17.0137 51.1063 17.0137C50.8325 17.0137 50.57 16.9049 50.3765 16.7114C50.1829 16.5179 50.0742 16.2553 50.0742 15.9816Z" fill="white"/>
<path d="M61.0266 66C60.1021 65.9989 59.2006 65.7117 58.4458 65.1778C57.691 64.644 57.1199 63.8897 56.8108 63.0184H17.7269C17.4533 63.0181 17.1909 62.9092 16.9976 62.7156L7.36523 53.0833C7.17163 52.8899 7.06274 52.6276 7.0625 52.354V34.0001C7.0625 33.7264 7.17123 33.4639 7.36478 33.2704C7.55832 33.0768 7.82082 32.9681 8.09454 32.9681C8.36825 32.9681 8.63075 33.0768 8.8243 33.2704C9.01784 33.4639 9.12657 33.7264 9.12657 34.0001V51.322H14.9748C15.9781 51.3231 16.9399 51.7221 17.6493 52.4316C18.3587 53.141 18.7578 54.1028 18.7589 55.1061V60.9543H56.5545V26.2616C56.5545 26.1112 56.5873 25.9625 56.6508 25.8261L59.4673 19.7749C59.6055 19.4779 59.8257 19.2265 60.102 19.0504C60.3782 18.8743 60.6991 18.7807 61.0267 18.7807C61.3543 18.7807 61.6751 18.8743 61.9514 19.0504C62.2276 19.2265 62.4478 19.4779 62.5861 19.7749L65.4025 25.8261C65.4659 25.9625 65.4988 26.1112 65.4988 26.2616V61.5278C65.4975 62.7135 65.0259 63.8503 64.1875 64.6887C63.3491 65.5271 62.2123 65.9987 61.0266 66ZM14.9748 53.386H10.586L16.6948 59.4947V55.1061C16.6943 54.6501 16.513 54.2129 16.1905 53.8904C15.868 53.5679 15.4308 53.3865 14.9748 53.386ZM63.4347 26.49L61.0266 21.3161L58.6185 26.49V53.6156H63.4347V26.49ZM63.4347 55.6796H58.6185V57.7437H63.4347V55.6796ZM63.4347 59.8078H58.6185V61.5278C58.6185 62.1665 58.8722 62.779 59.3238 63.2306C59.7754 63.6822 60.388 63.9359 61.0266 63.9359C61.6653 63.9359 62.2778 63.6822 62.7294 63.2306C63.181 62.779 63.4347 62.1665 63.4347 61.5278V59.8078Z" fill="white"/>
</svg>
